<svg xmlns="http://www.w3.org/2000/svg" viewBox="0 0 273 360" fill="#000" fill-rule="evenodd"><path d="M72.00 359.31C60.63 357.41 49.25 351.04 44.86 344.12C42.05 339.69 42.00 339.66 42.02 342.55C42.03 344.17 42.91 347.42 43.98 349.76L45.91 354.02L43.71 352.85C39.59 350.66 30.51 340.47 27.34 334.47C25.60 331.19 23.13 325.12 21.84 321.00C19.73 314.24 19.50 311.64 19.51 294.50C19.52 279.83 19.94 273.56 21.36 267.00C23.61 256.60 28.55 240.85 31.19 235.65C32.26 233.54 32.84 231.51 32.47 231.15C31.35 230.06 26.08 237.16 24.07 242.48C18.95 256.03 21.03 229.75 26.47 212.17C33.53 189.31 33.38 183.77 25.01 160.03C22.25 152.21 20.00 144.98 20.00 143.97C20.00 142.95 19.48 141.80 18.85 141.41C17.63 140.65 18.11 152.56 19.47 156.50C19.92 157.82 19.12 157.34 17.11 155.08C9.90 146.97 9.07 134.26 14.49 114.94C19.07 98.61 19.04 96.32 14.15 90.68C8.68 84.36 6.26 80.12 5.06 74.79C3.75 68.92 4.57 64.76 7.71 61.37L10.17 58.72L7.02 59.35L3.88 59.97L6.01 56.99C7.18 55.34 8.22 53.99 8.32 53.98C8.42 53.98 10.30 53.32 12.50 52.53L16.50 51.09L12.50 51.00L8.50 50.91L13.00 48.51C15.48 47.20 19.46 45.81 21.85 45.43C37.19 43.01 47.17 59.63 43.08 80.80C42.43 84.18 42.59 85.44 43.80 86.66C46.97 89.83 57.02 86.35 56.99 82.10C56.98 81.22 55.43 78.54 53.53 76.16C46.84 67.74 43.22 52.00 46.01 43.41C49.09 33.91 54.94 29.95 65.71 30.08C71.47 30.15 72.08 30.31 69.75 31.16C66.01 32.53 66.28 33.68 70.25 33.25C75.21 32.71 82.04 36.66 84.76 41.64C88.38 48.24 89.34 55.80 87.91 66.27C86.69 75.18 86.71 75.34 88.95 77.16C93.46 80.81 107.00 78.14 107.00 73.60C107.00 72.81 104.95 69.77 102.45 66.84C93.40 56.24 89.61 43.77 91.70 31.55C94.44 15.55 106.49 8.47 121.44 14.06C128.13 16.57 129.40 18.06 124.27 17.39L120.50 16.90L124.50 19.06C134.39 24.41 137.54 30.60 137.43 44.50C137.36 54.13 135.17 62.15 131.01 67.98C126.82 73.88 130.15 77.96 139.18 77.99C144.73 78.00 148.82 76.63 149.65 74.48C149.97 73.63 148.85 70.31 147.14 67.11C142.63 58.65 140.69 49.28 141.31 39.00C142.00 27.65 144.25 21.65 149.95 15.95C159.95 5.96 177.48 5.20 185.96 14.40L188.42 17.07L184.74 15.54C180.54 13.78 177.59 13.53 178.50 15.00C178.84 15.55 180.04 16.00 181.18 16.00C184.39 16.00 190.64 22.94 192.01 28.04C194.43 37.03 190.39 52.62 181.95 66.83C179.23 71.41 177.00 75.55 177.00 76.04C177.00 77.51 180.65 79.00 184.24 79.00C190.14 79.00 190.95 77.62 193.02 64.14C196.68 40.23 200.86 31.08 211.66 23.35C220.78 16.83 237.49 15.19 249.29 19.65C254.68 21.69 262.54 27.34 264.81 30.81L266.32 33.11L261.51 30.56C258.87 29.15 255.76 28.02 254.60 28.04C252.82 28.07 252.96 28.32 255.50 29.67C265.38 34.90 271.83 43.99 272.73 53.97C274.28 71.04 258.97 93.64 238.54 104.44L233.58 107.06L233.33 113.48C232.82 126.59 227.10 141.57 219.93 148.57C215.55 152.85 215.36 152.78 217.50 147.65C219.99 141.70 219.23 140.25 216.15 145.05C212.46 150.81 203.51 159.19 198.08 161.96C193.11 164.50 192.19 164.16 194.50 160.64C195.41 159.25 196.01 157.12 195.83 155.89C195.55 154.03 194.82 154.64 191.22 159.79C181.83 173.21 178.13 184.83 175.57 209.00C174.66 217.53 173.20 226.97 172.31 230.00L170.70 235.50L168.77 229.00C167.70 225.43 166.14 221.82 165.29 221.00C163.91 219.66 163.81 219.76 164.31 222.00C167.54 236.32 168.28 275.23 165.63 291.16C161.90 313.58 154.74 329.33 142.78 341.39C138.48 345.74 134.76 349.10 134.53 348.86C134.29 348.63 134.58 346.55 135.17 344.24C135.75 341.93 135.92 339.25 135.54 338.27C134.98 336.82 134.58 337.13 133.37 339.99C132.56 341.91 130.90 344.55 129.70 345.84C127.63 348.05 118.00 353.59 118.00 352.56C118.00 352.30 119.12 350.43 120.50 348.40C124.62 342.33 123.46 341.29 118.13 346.28C107.02 356.68 88.14 362.01 72.00 359.31Z"/></svg>